<?xml version="1.0" encoding="UTF-8"?>
<svg id="Layer_1" xmlns="http://www.w3.org/2000/svg" version="1.1" viewBox="0 0 8791.6 315.3">
  <!-- Generator: Adobe Illustrator 29.3.1, SVG Export Plug-In . SVG Version: 2.1.0 Build 151)  -->
  <defs>
    <style>
      .st0 {
        fill: #f9b852;
      }
    </style>
  </defs>
  <path class="st0" d="M6895.2,168.6h-1425.2c-11.3-25-47-25-58.4,0-95.8,0-88.3,0-90.2.2-12.1-34.6-61-35.4-74.2-1.2-106.7,8.4-189.7-30-253.7-106.1-3.2-3.9-9.4-.8-8.3,4.1,18.6,80.1,14.6,140.6-33.7,169.8-128.4,77.9-208.3,77.3-502.5-24.7-7.9-2.7-9.2-13.2-2.3-17.9,17.7-12.1,45.1-20.7,75.3-28.3,2.8-.7,5.7-.2,8.1,1.3,106.6,65.3,221.5,97.6,329,41.5,69-36,54.1-107.5-23.1-140.9-84.2-36.5-247.2,10.4-399.9,58.5-244-114.2-445.6-122.1-601.6-15.8-10.1,6.9-21.2,12.3-33,15.9-67.7,21.2-145.9,36.4-230.6,47.7-4.1-17.3-19.8-30.2-38.4-30.2s-32,11.1-37.3,26.5c-1.9-.3,5.9-.2-90.2-.2-11.3-25-47-25-58.4,0h-1425.2c-7.2,0-13.1,5.8-13.1,13.1s5.9,13,13.1,13h1425.2c11.3,25,47,25,58.4,0,95.8,0,88.3,0,90.2-.2,5.4,15.4,20,26.5,37.3,26.5s34.3-12.9,38.5-30.3c107,.2,194,29.9,261,88.9,3.7,3.2,9.3-.5,7.6-5.1-25.9-69.3-32.7-132.2,19.3-164.4,133.3-82.5,320.6-71.9,553.1,24.5,2.2.9,2.1,4.1-.2,4.8-83.9,27.2-83.6,28.3-97.1,27.8-126.5-104.2-384.8-88.3-375.5,24.3,2.8,34.2,23.1,60.7,71.9,73.1,126.3,32.1,246.5,8.1,379.6-44.6,10.4-4.1,21.9-3.9,32.1.5,222.3,96.6,397.3,123.5,539.3,37.9,82.5-49.7,179.7-66.5,285.1-62.6,13.2,34.2,62.2,33.4,74.2-1.2,1.9.3-5.9.2,90.2.2,11.3,25,47,25,58.4,0h1425.2c7.2,0,13.1-5.8,13.1-13,0-7.2-5.9-13-13.1-13ZM4818.5,99.8c17.5,1.3,34.5,7.9,47.1,20.1,19,18.5,17.5,39-.4,61.2-9.6,11.9-22.8,20.4-37.5,24.8-82.1,24.5-181.1-2.9-285.8-47.5,90.5-46.4,182.7-65.7,276.6-58.6ZM3986.3,225.3c-38.8-19.8-31.5-77.6,26.6-92.9,95.8-25.3,202.2-7.1,288.3,39.3-112.4,44.9-236.1,93.8-314.9,53.6Z"/>
  <path class="st0" d="M44,168.5h1879.4c5.1,5.1,8,8,13,13h0c-5.1,5.1-8,8-13,13.1H44c-5.1-5.1-8-8-13-13h0c5.1-5.1,8-8,13-13.1Z"/>
  <path class="st0" d="M8773.6,194.6h-1879.5c-5.1-5.1-7.9-7.9-13-13h0c5.1-5.1,7.9-7.9,13-13h1879.5c5.1,5.1,7.9,7.9,13,13h0c-5.1,5.1-7.9,7.9-13,13Z"/>
</svg>